<svg width="144" height="135" viewBox="0 0 144 135" fill="none" xmlns="http://www.w3.org/2000/svg">
<g clip-path="url(#clip0_5623_9690)">
<path fill-rule="evenodd" clip-rule="evenodd" d="M143.582 73.0165C143.616 67.2938 141.846 64.0868 137.373 61.8544L110.017 48.2066C108.935 47.6656 107.829 47.1891 106.709 46.777L106.532 28.265C106.41 22.8214 104.771 19.3568 100.298 17.1244L72.9413 3.47659C63.4043 -1.28448 52.2075 -1.1471 42.7845 3.83721L7.63107 22.435C3.73687 24.4957 1.72642 28.3166 1.63772 32.1975L0.00316698 60.2187C-0.0644114 62.8633 0.94504 65.6967 3.46233 67.2079L32.7322 84.7539C34.4681 85.7971 36.2759 86.6643 38.13 87.3598L37.2388 105.06C37.129 107.864 38.0118 110.431 40.5333 111.938L69.8032 129.484C80.1173 135.666 92.8981 135.769 103.305 129.75L140.583 108.19C143.155 106.705 144.004 104.107 144 101.278L143.573 73.0165H143.582ZM37.26 49.516C31.0512 46.6482 14.1355 37.6541 12.8346 36.9285C9.92029 35.2929 9.78514 33.5584 9.93719 31.472C10.0048 30.5146 10.3089 29.5744 10.841 28.7502C11.3732 27.9216 12.1335 27.2132 13.1218 26.7109C14.5198 26.0026 46.5942 9.68014 46.5942 9.68014C52.8875 6.49894 60.1859 6.0868 66.7452 8.44372C67.6829 8.77859 68.6037 9.17355 69.5075 9.62433C75.4755 12.5995 87.4158 18.5497 93.3796 21.5377C93.3922 21.5463 93.4218 21.5592 93.4387 21.5678C95.9138 22.8257 96.9443 25.423 96.5177 27.7842C96.2263 29.4156 95.3858 30.8409 93.5485 31.8498C93.0839 32.1074 67.4421 45.9312 62.3358 48.6745C54.5474 52.8646 45.3018 53.2252 37.2642 49.5117L37.26 49.516ZM133.487 73.3084C133.238 75.0514 132.262 76.7086 130.535 77.7346L98.6591 96.6887C90.706 101.415 80.9071 101.587 72.7977 97.1438L49.4072 84.316C45.1624 81.9891 45.1371 75.807 49.3649 73.4415L81.0127 55.7539C88.3661 51.6453 97.202 51.3319 104.817 54.9167L130.02 66.7743C132.174 67.7875 133.356 69.7881 133.53 71.8702C133.568 72.351 133.555 72.8362 133.487 73.3127V73.3084Z" fill="url(#paint0_linear_5623_9690)"/>
</g>
<defs>
<linearGradient id="paint0_linear_5623_9690" x1="31.7381" y1="11.471" x2="104.668" y2="127.496" gradientUnits="userSpaceOnUse">
<stop stop-color="#9894F9"/>
<stop offset="1" stop-color="#453AFF"/>
</linearGradient>
<clipPath id="clip0_5623_9690">
<rect width="144" height="135" fill="white"/>
</clipPath>
</defs>
</svg>
