<svg width="109" height="76" viewBox="0 0 109 76" fill="none" xmlns="http://www.w3.org/2000/svg">
<path fill-rule="evenodd" clip-rule="evenodd" d="M25.5214 1C11.97 1 0.984375 11.9856 0.984375 25.537C0.984375 39.0884 11.9699 50.074 25.5213 50.074H33.759C34.5109 50.074 35.2353 50.3563 35.7889 50.865L45.1471 59.464C45.7138 59.9848 46.6317 59.6969 46.7996 58.9458L48.2585 52.4195C48.5649 51.0487 49.7815 50.074 51.1862 50.074H52.4476C65.999 50.074 76.9846 39.0884 76.9846 25.537C76.9846 11.9856 65.999 1 52.4476 1H25.5214Z" fill="url(#paint0_linear_3391_10984)"/>
<path d="M45.1471 59.464L44.8088 59.8322L45.1471 59.464ZM46.7996 58.9458L47.2876 59.0549L46.7996 58.9458ZM35.7889 50.865L35.4506 51.2331L35.7889 50.865ZM1.48438 25.537C1.48438 12.2617 12.2461 1.5 25.5214 1.5V0.5C11.6938 0.5 0.484375 11.7094 0.484375 25.537H1.48438ZM25.5213 49.574C12.2461 49.574 1.48438 38.8123 1.48438 25.537H0.484375C0.484375 39.3645 11.6938 50.574 25.5213 50.574V49.574ZM33.759 49.574H25.5213V50.574H33.759V49.574ZM45.4854 59.0958L36.1272 50.4968L35.4506 51.2331L44.8088 59.8322L45.4854 59.0958ZM46.3117 58.8367C46.2277 59.2123 45.7688 59.3562 45.4854 59.0958L44.8088 59.8322C45.6589 60.6133 47.0357 60.1815 47.2876 59.0549L46.3117 58.8367ZM47.7705 52.3104L46.3117 58.8367L47.2876 59.0549L48.7465 52.5286L47.7705 52.3104ZM52.4476 49.574H51.1862V50.574H52.4476V49.574ZM76.4846 25.537C76.4846 38.8123 65.7228 49.574 52.4476 49.574V50.574C66.2751 50.574 77.4846 39.3645 77.4846 25.537H76.4846ZM52.4476 1.5C65.7229 1.5 76.4846 12.2617 76.4846 25.537H77.4846C77.4846 11.7094 66.2752 0.5 52.4476 0.5V1.5ZM25.5214 1.5H52.4476V0.5H25.5214V1.5ZM48.7465 52.5286C49.0018 51.3862 50.0157 50.574 51.1862 50.574V49.574C49.5474 49.574 48.128 50.7111 47.7705 52.3104L48.7465 52.5286ZM33.759 50.574C34.3856 50.574 34.9892 50.8092 35.4506 51.2331L36.1272 50.4968C35.4813 49.9033 34.6362 49.574 33.759 49.574V50.574Z" fill="#9894F9"/>
<circle cx="22.8173" cy="25.8564" r="4.45895" fill="#CCCAFC"/>
<circle cx="38.9843" cy="25.8564" r="4.45895" fill="#CCCAFC"/>
<circle cx="55.1504" cy="25.8564" r="4.45895" fill="#CCCAFC"/>
<path fill-rule="evenodd" clip-rule="evenodd" d="M88.8758 30.3418C99.4464 30.3418 108.016 38.911 108.016 49.4816C108.016 60.0523 99.4464 68.6215 88.8758 68.6215H84.3623C83.7833 68.6215 83.2166 68.7891 82.7307 69.104L73.2855 75.2258C72.6201 75.657 71.7416 75.1795 71.7416 74.3867V71.0805C71.7416 69.5766 70.6185 68.3301 69.1692 67.9286C61.0852 65.6892 55.1507 58.2785 55.1507 49.4816C55.1507 38.911 63.7199 30.3418 74.2905 30.3418H88.8758Z" fill="url(#paint1_linear_3391_10984)"/>
<path d="M73.2855 75.2258L73.0135 74.8062L73.2855 75.2258ZM69.1692 67.9286L69.0357 68.4105L69.1692 67.9286ZM82.7307 69.104L82.4587 68.6844L82.7307 69.104ZM107.516 49.4816C107.516 39.1871 99.1703 30.8418 88.8758 30.8418V29.8418C99.7226 29.8418 108.516 38.6349 108.516 49.4816H107.516ZM88.8758 68.1215C99.1703 68.1215 107.516 59.7762 107.516 49.4816H108.516C108.516 60.3284 99.7226 69.1215 88.8758 69.1215V68.1215ZM84.3623 68.1215H88.8758V69.1215H84.3623V68.1215ZM73.0135 74.8062L82.4587 68.6844L83.0026 69.5236L73.5574 75.6454L73.0135 74.8062ZM72.2416 74.3867C72.2416 74.7831 72.6809 75.0218 73.0135 74.8062L73.5574 75.6454C72.5594 76.2922 71.2416 75.5759 71.2416 74.3867H72.2416ZM72.2416 71.0805V74.3867H71.2416V71.0805H72.2416ZM55.6507 49.4816C55.6507 58.0479 61.4297 65.2658 69.3026 67.4468L69.0357 68.4105C60.7408 66.1126 54.6507 58.509 54.6507 49.4816H55.6507ZM74.2905 30.8418C63.996 30.8418 55.6507 39.1871 55.6507 49.4816H54.6507C54.6507 38.6349 63.4437 29.8418 74.2905 29.8418V30.8418ZM88.8758 30.8418H74.2905V29.8418H88.8758V30.8418ZM71.2416 71.0805C71.2416 69.8406 70.3088 68.7632 69.0357 68.4105L69.3026 67.4468C70.9281 67.8971 72.2416 69.3125 72.2416 71.0805H71.2416ZM84.3623 69.1215C83.8798 69.1215 83.4076 69.2611 83.0026 69.5236L82.4587 68.6844C83.0256 68.317 83.6868 68.1215 84.3623 68.1215V69.1215Z" fill="#9894F9"/>
<path d="M74.2666 49.5654H88.9006" stroke="white" stroke-width="3" stroke-linecap="round"/>
<path d="M81.583 42.248L81.583 56.8821" stroke="white" stroke-width="3" stroke-linecap="round"/>
<path fill-rule="evenodd" clip-rule="evenodd" d="M97.9028 10.2971C98.2797 10.4128 98.2796 10.9462 97.9028 11.0619L94.1936 12.2001C94.0666 12.2391 93.9672 12.3386 93.9284 12.4657L92.7939 16.1805C92.6786 16.558 92.1441 16.558 92.0288 16.1805L90.8942 12.4657C90.8554 12.3386 90.756 12.2391 90.629 12.2001L86.9199 11.0619C86.543 10.9462 86.543 10.4128 86.9199 10.2971L90.629 9.15871C90.7561 9.11973 90.8554 9.02022 90.8942 8.89315L92.0288 5.17837C92.1441 4.80082 92.6786 4.80082 92.7939 5.17837L93.9284 8.89315C93.9672 9.02022 94.0666 9.11973 94.1936 9.15871L97.9028 10.2971Z" fill="#FBBF24"/>
<path fill-rule="evenodd" clip-rule="evenodd" d="M21.5717 65.7131C21.9485 65.8288 21.9485 66.3623 21.5717 66.4779L18.1579 67.5255C18.0308 67.5645 17.9315 67.664 17.8926 67.7911L16.8485 71.2098C16.7332 71.5874 16.1987 71.5874 16.0834 71.2098L15.0393 67.7911C15.0005 67.664 14.9011 67.5645 14.7741 67.5255L11.3603 66.4779C10.9834 66.3623 10.9834 65.8288 11.3603 65.7131L14.7741 64.6654C14.9011 64.6264 15.0005 64.5269 15.0393 64.3998L16.0834 60.9811C16.1987 60.6036 16.7332 60.6036 16.8485 60.9811L17.8927 64.3998C17.9315 64.5269 18.0308 64.6264 18.1578 64.6654L21.5717 65.7131Z" fill="#FBBF24"/>
<defs>
<linearGradient id="paint0_linear_3391_10984" x1="38.9845" y1="1" x2="38.9845" y2="59.7285" gradientUnits="userSpaceOnUse">
<stop stop-color="#E6E8F2"/>
<stop offset="1" stop-color="#F7F7F8"/>
</linearGradient>
<linearGradient id="paint1_linear_3391_10984" x1="81.5832" y1="30.3418" x2="81.5832" y2="75.3883" gradientUnits="userSpaceOnUse">
<stop stop-color="#9894F9"/>
<stop offset="1" stop-color="#CCCAFC"/>
</linearGradient>
</defs>
</svg>
