<svg width="20" height="18" viewBox="0 0 20 18" fill="none" xmlns="http://www.w3.org/2000/svg">
<path d="M2.5 0.25C1.12109 0.25 0 1.37109 0 2.75V15.25C0 16.6289 1.12109 17.75 2.5 17.75H17.5C18.8789 17.75 20 16.6289 20 15.25V6.5C20 5.12109 18.8789 4 17.5 4H3.125C2.78125 4 2.5 3.71875 2.5 3.375C2.5 3.03125 2.78125 2.75 3.125 2.75H17.5C18.1914 2.75 18.75 2.19141 18.75 1.5C18.75 0.808594 18.1914 0.25 17.5 0.25H2.5ZM16.25 9.625C16.5815 9.625 16.8995 9.7567 17.1339 9.99112C17.3683 10.2255 17.5 10.5435 17.5 10.875C17.5 11.2065 17.3683 11.5245 17.1339 11.7589C16.8995 11.9933 16.5815 12.125 16.25 12.125C15.9185 12.125 15.6005 11.9933 15.3661 11.7589C15.1317 11.5245 15 11.2065 15 10.875C15 10.5435 15.1317 10.2255 15.3661 9.99112C15.6005 9.7567 15.9185 9.625 16.25 9.625Z" fill="white"/>
</svg>
